<svg width="51" height="14" viewBox="0 0 51 14" fill="none" xmlns="http://www.w3.org/2000/svg">
<path fill-rule="evenodd" clip-rule="evenodd" d="M43.1458 0L41.1609 5.6H36L40.3669 9.2L38.7789 14L43.1458 10.7995L47.5127 14L45.9248 9.2L50.2917 5.6H45.1308L43.1458 0Z" fill="black"/>
<path fill-rule="evenodd" clip-rule="evenodd" d="M25.1458 0L23.1609 5.6H18L22.3669 9.2L20.7789 14L25.1458 10.7995L29.5127 14L27.9248 9.2L32.2917 5.6H27.1308L25.1458 0Z" fill="black"/>
<path fill-rule="evenodd" clip-rule="evenodd" d="M7.14583 0L5.16088 5.6H0L4.3669 9.2L2.77894 14L7.14583 10.7995L11.5127 14L9.92477 9.2L14.2917 5.6H9.13079L7.14583 0Z" fill="black"/>
</svg>
