<svg width="87" height="14" viewBox="0 0 87 14" fill="none" xmlns="http://www.w3.org/2000/svg">
<path fill-rule="evenodd" clip-rule="evenodd" d="M7.14583 0L5.16088 5.6H0L4.3669 9.2L2.77894 14L7.14583 10.7995L11.5127 14L9.92477 9.2L14.2917 5.6H9.13079L7.14583 0Z" fill="black"/>
<path fill-rule="evenodd" clip-rule="evenodd" d="M61.1458 0L59.1609 5.6H54L58.3669 9.2L56.7789 14L61.1458 10.7995L65.5127 14L63.9248 9.2L68.2917 5.6H63.1308L61.1458 0Z" fill="black"/>
<path fill-rule="evenodd" clip-rule="evenodd" d="M43.1458 0L41.1609 5.6H36L40.3669 9.2L38.7789 14L43.1458 10.7995L47.5127 14L45.9248 9.2L50.2917 5.6H45.1308L43.1458 0Z" fill="black"/>
<path fill-rule="evenodd" clip-rule="evenodd" d="M25.1458 0L23.1609 5.6H18L22.3669 9.2L20.7789 14L25.1458 10.7995L29.5127 14L27.9248 9.2L32.2917 5.6H27.1308L25.1458 0Z" fill="black"/>
<path fill-rule="evenodd" clip-rule="evenodd" d="M79.4375 0L77.4525 5.6H72.2917L76.6586 9.2L75.0706 14L79.4375 10.7995L83.8044 14L82.2164 9.2L86.5833 5.6H81.4225L79.4375 0Z" fill="#C4C4C4"/>
<path d="M77.4525 5.6L79.4375 0V10.7995L75.0706 14L76.6586 9.2L72.2917 5.6H77.4525Z" fill="black"/>
</svg>
