<svg width="39" height="39" viewBox="0 0 39 39" fill="none" xmlns="http://www.w3.org/2000/svg">
<path fill-rule="evenodd" clip-rule="evenodd" d="M16 23.1706C17.1652 23.5825 18 24.6937 18 25.9999C18 27.6568 16.6569 28.9999 15 28.9999C13.3431 28.9999 12 27.6568 12 25.9999C12 24.6937 12.8348 23.5825 14 23.1706V10.9999H16V23.1706Z" fill="#007AFF"/>
<path fill-rule="evenodd" clip-rule="evenodd" d="M25 15.8292C26.1652 15.4174 27 14.3062 27 12.9999C27 11.3431 25.6569 9.99994 24 9.99994C22.3431 9.99994 21 11.3431 21 12.9999C21 14.3062 21.8348 15.4174 23 15.8292V27.9999H25V15.8292Z" fill="#007AFF"/>
</svg>
