<svg width="15" height="15" viewBox="0 0 15 15" fill="none" xmlns="http://www.w3.org/2000/svg">
<path opacity="0.9" d="M8.2314 3.4879L8.23387 3.48681L13.7227 1.08544C13.9363 0.991995 14.1503 1.21594 14.0472 1.42504L11.3697 6.85523L7.87567 13.7077C7.83811 13.7814 7.79529 13.8113 7.75997 13.8266C7.71798 13.8447 7.66129 13.8519 7.59964 13.8384C7.538 13.825 7.48944 13.7948 7.45883 13.7608C7.43308 13.7323 7.40662 13.6872 7.40317 13.6046L7.19878 8.71563C7.17222 8.08027 6.67287 7.56611 6.03856 7.52099L5.98535 8.2691L6.03856 7.52099L1.06818 7.16745C0.983869 7.16146 0.939614 7.13302 0.912183 7.10642C0.879264 7.07449 0.850645 7.02422 0.839629 6.961C0.828612 6.89777 0.838543 6.84078 0.858725 6.79961C0.875543 6.76529 0.907573 6.72357 0.984889 6.68941L8.2314 3.4879Z" stroke="#007AFF" stroke-width="1.5"/>
</svg>
