<svg width="20" height="21" viewBox="0 0 20 21" fill="none" xmlns="http://www.w3.org/2000/svg">
<path fill-rule="evenodd" clip-rule="evenodd" d="M16.4103 8.2C16.4103 12.7287 12.7367 16.4 8.20513 16.4C3.67356 16.4 0 12.7287 0 8.2C0 3.67126 3.67356 0 8.20513 0C12.7367 0 16.4103 3.67126 16.4103 8.2ZM2.05127 8.19999C2.05127 11.5965 4.80644 14.35 8.20511 14.35C11.6038 14.35 14.359 11.5965 14.359 8.19999C14.359 4.80344 11.6038 2.04999 8.20511 2.04999C4.80644 2.04999 2.05127 4.80344 2.05127 8.19999Z" fill="#007AFF"/>
<path fill-rule="evenodd" clip-rule="evenodd" d="M18.2307 20.1809C18.6208 20.5914 19.27 20.608 19.6807 20.2181C20.0914 19.8283 20.1081 19.1795 19.718 18.7691L14.0769 12.8343C13.6868 12.4238 13.0376 12.4072 12.6269 12.797C12.2163 13.1869 12.1996 13.8357 12.5897 14.2461L18.2307 20.1809Z" fill="#007AFF"/>
</svg>
